# xmcd
#
# Track frame offsets:
#	150
#	21300
#	75675
#	82650
#	103200
#	151200
#
# Disc length: 2296 seconds
#
# Revision: 1
# Processed by: cddbd v1.5.1PL0 Copyright (c) Steve Scherf et al.
# Submitted via: CDex 1.50Beta5
#
DISCID=3808f606
DTITLE=KID - 想い出にかわる君 MemoryCollection6 百瀬環(沢城みゆき)
DYEAR=2003
DGENRE=Soundtrack
TTITLE0=『Tears For…」
TTITLE1=連続CDドラマ『Roots』第六話 〜Treasure Hunter〜
TTITLE2=Tamaki 百瀬環イメージBgm(オリジナル)
TTITLE3=Tamaki 百瀬環イメージBgm(アレンジ)
TTITLE4=トビーと環のメモリーズオフ
TTITLE5=『Tears For…』(カラオケ)
EXTD=
EXTT0=
EXTT1=
EXTT2=
EXTT3=
EXTT4=
EXTT5=
PLAYORDER=
